<svg width="33" height="32" viewBox="0 0 33 32" fill="none" xmlns="http://www.w3.org/2000/svg">
<path fill-rule="evenodd" clip-rule="evenodd" d="M7 5.3335C4.79086 5.3335 3 7.12436 3 9.3335V22.6668C3 24.876 4.79086 26.6668 7 26.6668H25.6667C27.8758 26.6668 29.6667 24.876 29.6667 22.6668V9.3335C29.6667 7.12436 27.8758 5.3335 25.6667 5.3335H7ZM6.76735 8.02039C6.8429 8.0071 6.92064 8.00016 7 8.00016H25.6667C25.746 8.00016 25.8238 8.0071 25.8993 8.02039L16.3334 14.3977L6.76735 8.02039ZM5.66667 10.4915V22.6668C5.66667 23.4032 6.26362 24.0002 7 24.0002H25.6667C26.403 24.0002 27 23.4032 27 22.6668V10.4916L17.073 17.1096C16.6251 17.4082 16.0416 17.4082 15.5938 17.1096L5.66667 10.4915Z" fill="#A0ABBB"/>
</svg>
