<svg width="33" height="32" viewBox="0 0 33 32" fill="none" xmlns="http://www.w3.org/2000/svg">
<path d="M25.7332 6.54658C24.5106 5.31205 23.0546 4.3332 21.4499 3.66706C19.8452 3.00092 18.124 2.66082 16.3865 2.66658C9.10653 2.66658 3.1732 8.59991 3.1732 15.8799C3.1732 18.2132 3.78653 20.4799 4.93319 22.4799L3.06653 29.3332L10.0665 27.4932C11.9999 28.5466 14.1732 29.1066 16.3865 29.1066C23.6665 29.1066 29.5999 23.1732 29.5999 15.8932C29.5999 12.3599 28.2265 9.03991 25.7332 6.54658ZM16.3865 26.8666C14.4132 26.8666 12.4799 26.3332 10.7865 25.3332L10.3865 25.0932L6.22653 26.1866L7.33319 22.1332L7.06653 21.7199C5.96993 19.9693 5.38776 17.9456 5.38653 15.8799C5.38653 9.82658 10.3199 4.89324 16.3732 4.89324C19.3065 4.89324 22.0665 6.03991 24.1332 8.11991C25.1567 9.13839 25.9678 10.35 26.5194 11.6843C27.071 13.0187 27.3521 14.4494 27.3465 15.8932C27.3732 21.9466 22.4399 26.8666 16.3865 26.8666ZM22.4132 18.6532C22.0799 18.4932 20.4532 17.6932 20.1599 17.5732C19.8532 17.4666 19.6399 17.4132 19.4132 17.7332C19.1865 18.0666 18.5599 18.8132 18.3732 19.0266C18.1865 19.2532 17.9865 19.2799 17.6532 19.1066C17.3199 18.9466 16.2532 18.5866 14.9999 17.4666C14.0132 16.5866 13.3599 15.5066 13.1599 15.1732C12.9732 14.8399 13.1332 14.6666 13.3065 14.4932C13.4532 14.3466 13.6399 14.1066 13.7999 13.9199C13.9599 13.7332 14.0265 13.5866 14.1332 13.3732C14.2399 13.1466 14.1865 12.9599 14.1065 12.7999C14.0265 12.6399 13.3599 11.0132 13.0932 10.3466C12.8265 9.70658 12.5465 9.78658 12.3465 9.77324H11.7065C11.4799 9.77324 11.1332 9.85324 10.8265 10.1866C10.5332 10.5199 9.67986 11.3199 9.67986 12.9466C9.67986 14.5732 10.8665 16.1466 11.0265 16.3599C11.1865 16.5866 13.3599 19.9199 16.6665 21.3466C17.4532 21.6932 18.0665 21.8932 18.5465 22.0399C19.3332 22.2932 20.0532 22.2532 20.6265 22.1732C21.2665 22.0799 22.5865 21.3732 22.8532 20.5999C23.1332 19.8266 23.1332 19.1732 23.0399 19.0266C22.9465 18.8799 22.7465 18.8132 22.4132 18.6532Z" fill="white"/>
</svg>
