<svg width="239" height="60" viewBox="0 0 239 60" fill="none" xmlns="http://www.w3.org/2000/svg">
<g clip-path="url(#clip0_6_101)">
<path d="M21.3465 36.0004C21.25 36.0004 20.9384 36.1414 20.8493 36.2081C17.4511 38.6344 14.2718 41.8991 10.8958 44.4143C4.54823 49.137 -1.10188 38.1966 6.64801 35.8817L19.8551 33.6743C22.5262 33.7893 24.511 35.9002 24.2995 38.5899C23.4462 42.6076 23.1086 46.874 22.222 50.8658C22.0476 51.6449 21.9215 52.2384 21.4577 52.9248C17.8629 58.2595 9.2412 52.9693 13.7709 46.8851C16.2788 43.5129 19.3394 40.3632 21.8881 36.9983C22.196 36.6162 21.7323 36.0152 21.3502 36.0041L21.3465 36.0004Z" fill="white"/>
<path d="M43.5426 3.9175C45.0785 5.1232 45.7945 7.09685 45.3234 8.98887C45.0414 10.1278 44.4479 10.8067 43.7393 11.7082C41.3316 14.7688 38.4713 17.7516 36.186 20.8678C35.6444 21.6061 36.2713 22.3073 37.0356 21.8509L47.4528 13.3405C54.0675 9.37841 58.6047 20.2149 51.3 22.17C47.3638 23.2236 42.6968 23.3349 38.6902 24.318C35.6889 24.5925 33.4185 22.3369 33.6596 19.3431L35.9486 6.20277C36.991 3.11617 40.9791 1.91047 43.5352 3.9175H43.5426Z" fill="white"/>
<path d="M11.3595 12.6098C11.6229 12.8212 11.8603 13.0587 12.0866 13.3035C14.9395 16.3604 17.4511 20.1148 20.2557 23.2571C21.9437 25.9727 20.4264 29.2893 17.3992 30.1166C13.6967 31.1294 9.71604 33.4184 6.0507 34.2976C-1.36159 36.0746 -2.43003 24.0361 5.45342 24.7225C9.64184 25.086 14.1048 26.3956 18.3266 26.8371C19.2726 26.9743 19.5249 25.8465 18.59 25.546C15.0137 24.1363 11.3372 22.9343 7.77208 21.4912C5.85408 20.7158 4.41837 20.1742 3.67269 18.0187C2.10342 13.4816 7.60142 9.62335 11.3558 12.6135L11.3595 12.6098Z" fill="white"/>
<path d="M56.0857 24.5555C59.9587 27.5902 57.6215 33.6892 52.7023 33.3404L39.4284 31.1665C38.6716 31.2036 38.5047 32.1199 39.2281 32.4167C42.8563 33.9043 46.6107 35.1063 50.2426 36.5717C51.8119 37.2061 52.8544 37.4918 53.8041 39.0499C56.7534 43.8913 50.2389 49.4523 45.7277 44.559C42.9936 41.5949 40.6193 38.0519 37.8703 35.0692C36.2416 32.7914 36.9539 29.6974 39.4284 28.3581L51.9714 23.7134C53.3181 23.3795 54.9838 23.6874 56.0857 24.5518V24.5555Z" fill="white"/>
<path d="M11.5044 8.42496C11.4191 3.23487 18.5902 1.40591 20.9794 6.59971C22.7341 10.4172 23.8508 14.8653 25.5573 18.7421C25.9098 19.4952 26.8298 19.3208 26.8224 18.4787L24.6299 4.9414C25.0787 -2.65638 36.0265 -0.957265 34.1716 6.40309C32.491 10.1575 31.4782 14.5982 29.7457 18.282C28.5846 20.7565 25.843 21.7025 23.439 20.4449C20.2485 17.733 16.6574 15.1732 13.5522 12.3722C12.3502 11.289 11.5378 10.0907 11.5081 8.42496H11.5044Z" fill="white"/>
<path d="M44.5407 45.7907C49.3635 50.135 43.9397 56.7125 39.1651 53.9524C37.4437 52.9544 37.0987 51.7005 36.4198 50.0014C35.0063 46.4511 33.7784 42.8154 32.3983 39.2502C32.0273 38.5231 31.1518 38.7086 31.1332 39.5174L33.3295 53.1882C32.9437 60.7451 21.6991 58.816 23.784 51.6634C24.9638 47.616 27.0376 43.498 28.3397 39.4543C29.6308 37.0948 32.4391 36.3825 34.717 37.7255C37.8889 40.4708 41.4318 43.0009 44.537 45.7981L44.5407 45.7907Z" fill="white"/>
<path d="M69.3668 8.75146H74.8611L85.9462 37.1281H86.0426L97.0312 8.75146H102.622V42.9081H98.5152V14.8208H98.4187C98.4187 14.8208 97.5098 17.4956 96.8902 19.1205L87.5266 42.9118H84.2285L74.8648 19.1205C74.1971 17.3991 73.3364 14.8208 73.3364 14.8208H73.2399V42.9118H69.3705V8.75146H69.3668Z" fill="white"/>
<path d="M118.856 8.75146H123.683L136.296 42.9081H131.615L127.983 32.4945H114.367L110.687 42.9081H106.291L118.856 8.75146ZM115.606 29.0073H126.784L122.867 17.5401C122.199 15.6295 121.338 12.7136 121.338 12.7136H121.242C121.242 12.7136 120.333 15.5813 119.665 17.5401L115.603 29.0073H115.606Z" fill="white"/>
<path d="M163.809 38.4192H163.712C161.226 41.9065 157.55 43.6279 153.057 43.6279C143.456 43.6279 137.005 36.3195 137.005 25.9504C137.005 15.5814 142.688 8.03552 153.439 8.03552C161.371 8.03552 166.242 12.3352 167.34 19.0241H162.896C161.939 14.487 158.741 11.7639 153.343 11.7639C145.126 11.7639 141.401 17.926 141.401 25.9541C141.401 33.9822 146.272 39.9032 153.202 39.9032C160.132 39.9032 163.519 35.1249 163.519 29.3932V28.5807H153.247V24.8523H167.819V42.9119H165.048L163.805 38.4229L163.809 38.4192Z" fill="white"/>
<path d="M173.744 8.75146H178.281L193.855 32.4945C195.001 34.2604 196.34 36.8907 196.34 36.8907H196.437V8.75146H200.451V42.9081H196.055L180.384 19.1168C179.286 17.4437 177.85 14.8653 177.85 14.8653H177.754V42.9081H173.74V8.75146H173.744Z" fill="white"/>
<path d="M205.559 25.8057C205.559 15.5814 211.963 7.9873 222.28 7.9873C232.597 7.9873 239 15.5814 239 25.8057C239 36.0301 232.597 43.6242 222.28 43.6242C211.963 43.6242 205.559 36.0264 205.559 25.8057ZM234.604 25.8057C234.604 17.7813 230.304 11.712 222.28 11.712C214.255 11.712 209.955 17.7776 209.955 25.8057C209.955 33.8339 214.255 39.8512 222.28 39.8512C230.304 39.8512 234.604 33.8302 234.604 25.8057Z" fill="white"/>
<path d="M67.7419 54.1305C67.7419 51.1329 69.3816 49.2483 71.8079 49.2483C72.9097 49.2483 73.7593 49.7936 74.2675 50.3761L73.8706 50.8139C73.3623 50.2351 72.6723 49.853 71.8079 49.853C69.7304 49.853 68.4393 51.5002 68.4393 54.123C68.4393 56.7459 69.7304 58.4524 71.7671 58.4524C72.7316 58.4524 73.4551 58.0592 74.1377 57.2913L74.5346 57.6993C73.8112 58.5415 72.9542 59.0534 71.7151 59.0534C69.3891 59.0534 67.7456 57.1392 67.7456 54.1305H67.7419Z" fill="white"/>
<path d="M98.1145 49.4227H98.7823L102.114 58.8829H101.405L99.5205 53.3144C99.1384 52.194 98.8008 51.1997 98.4706 50.046H98.415C98.0811 51.1997 97.7509 52.1903 97.3651 53.3144L95.4508 58.8829H94.7793L98.1108 49.4227H98.1145ZM96.3078 55.0803H100.544V55.6367H96.3078V55.0803Z" fill="white"/>
<path d="M123.26 49.4227H125.831C127.945 49.4227 129.203 50.1164 129.203 52.0567C129.203 53.9969 127.938 54.8131 125.831 54.8131H123.924V58.8791H123.263V49.4189L123.26 49.4227ZM125.664 54.2566C127.593 54.2566 128.52 53.6111 128.52 52.0567C128.52 50.5022 127.589 49.9791 125.664 49.9791H123.92V54.2566H125.664Z" fill="white"/>
<path d="M150.531 58.3115H152.965V49.9903H150.531V49.4189H156.062V49.9903H153.629V58.3115H156.062V58.8828H150.531V58.3115Z" fill="white"/>
<path d="M180.392 49.9903H177.097V49.4189H184.346V49.9903H181.052V58.8791H180.392V49.9903Z" fill="white"/>
<path d="M207.811 49.4227H208.479L211.81 58.8829H211.102L209.217 53.3144C208.835 52.194 208.498 51.1997 208.167 50.046H208.112C207.778 51.1997 207.448 52.1903 207.062 53.3144L205.148 58.8829H204.476L207.808 49.4227H207.811ZM206.005 55.0803H210.241V55.6367H206.005V55.0803Z" fill="white"/>
<path d="M233.417 49.4227H234.055V58.3115H239V58.8829H233.417V49.4227Z" fill="white"/>
</g>
<defs>
<clipPath id="clip0_6_101">
<rect width="239" height="59.0535" fill="white"/>
</clipPath>
</defs>
</svg>
