<svg width="165" height="165" viewBox="0 0 165 165" fill="none" xmlns="http://www.w3.org/2000/svg">
<path d="M109.587 52.3875L76.0375 66.1375C73.7353 67.0468 71.6444 68.419 69.8942 70.1692C68.144 71.9194 66.7717 74.0104 65.8625 76.3125L52.1125 109.863C51.8866 110.437 51.8972 111.078 52.142 111.644C52.3867 112.211 52.8457 112.658 53.4187 112.888C53.9732 113.093 54.583 113.093 55.1375 112.888L88.6875 99.1375C90.9896 98.2283 93.0805 96.856 94.8308 95.1058C96.581 93.3556 97.9532 91.2646 98.8625 88.9625L112.612 55.4125C112.838 54.838 112.828 54.1974 112.583 53.6307C112.338 53.064 111.879 52.6171 111.306 52.3875C110.752 52.1822 110.142 52.1822 109.587 52.3875ZM82.5 89.375C81.1402 89.375 79.811 88.9718 78.6804 88.2164C77.5498 87.4609 76.6686 86.3872 76.1483 85.131C75.6279 83.8747 75.4918 82.4924 75.7571 81.1588C76.0223 79.8251 76.6771 78.6001 77.6386 77.6387C78.6001 76.6772 79.8251 76.0224 81.1587 75.7571C82.4923 75.4918 83.8747 75.628 85.1309 76.1483C86.3872 76.6687 87.4609 77.5499 88.2163 78.6805C88.9718 79.811 89.375 81.1403 89.375 82.5C89.375 84.3234 88.6506 86.0721 87.3613 87.3614C86.072 88.6507 84.3233 89.375 82.5 89.375Z" fill="white"/>
<path d="M82.5 144.375C70.2623 144.375 58.2994 140.746 48.1241 133.947C37.9488 127.148 30.0182 117.485 25.335 106.179C20.6518 94.8724 19.4265 82.4314 21.8139 70.4288C24.2014 58.4262 30.0944 47.4012 38.7478 38.7478C47.4012 30.0944 58.4262 24.2014 70.4288 21.8139C82.4314 19.4265 94.8724 20.6518 106.179 25.335C117.485 30.0182 127.148 37.9488 133.947 48.1241C140.746 58.2994 144.375 70.2623 144.375 82.5C144.375 98.9103 137.856 114.648 126.252 126.252C114.648 137.856 98.9103 144.375 82.5 144.375ZM82.5 30.9375C72.3019 30.9375 62.3328 33.9616 53.8534 39.6274C45.374 45.2931 38.7651 53.3461 34.8625 62.7679C30.9598 72.1897 29.9387 82.5572 31.9283 92.5594C33.9178 102.562 38.8287 111.749 46.0398 118.96C53.251 126.171 62.4385 131.082 72.4407 133.072C82.4428 135.061 92.8103 134.04 102.232 130.138C111.654 126.235 119.707 119.626 125.373 111.147C131.038 102.667 134.063 92.6981 134.063 82.5C134.063 68.8248 128.63 55.7097 118.96 46.0398C109.29 36.37 96.1753 30.9375 82.5 30.9375Z" fill="white"/>
</svg>
