<svg width="161" height="161" viewBox="0 0 161 161" fill="none" xmlns="http://www.w3.org/2000/svg">
<path d="M77.97 12.316C78.7048 11.7855 79.588 11.5 80.4942 11.5C81.4005 11.5 82.2837 11.7855 83.0185 12.316C86.7158 14.984 95.0245 19.86 105.426 24.0517C115.834 28.2492 127.978 31.6245 139.426 31.6245C140.57 31.6245 141.667 32.0788 142.475 32.8876C143.284 33.6963 143.738 34.7932 143.738 35.937V80.511C143.738 97.9162 133.946 114.097 121.67 126.223C109.405 138.339 93.9147 147.153 81.2302 149.361L80.4942 149.488L79.7525 149.361C67.0737 147.148 51.5775 138.339 39.3127 126.223C27.0422 114.097 17.25 97.9162 17.25 80.511V35.937C17.25 34.7932 17.7044 33.6963 18.5131 32.8876C19.3219 32.0788 20.4188 31.6245 21.5625 31.6245C33.0108 31.6245 45.1547 28.2492 55.568 24.0517C65.964 19.8542 74.2728 14.9782 77.97 12.316ZM25.875 40.1172V80.511C25.875 94.7135 33.971 108.818 45.3732 120.082C56.5225 131.099 70.1097 138.678 80.5 140.731C90.8845 138.684 104.478 131.099 115.615 120.088C127.018 108.824 135.119 94.725 135.119 80.5167V40.1172C123.539 39.4042 111.935 35.9772 102.206 32.05C93.0695 28.37 85.3357 24.1437 80.5 21.0215C75.67 24.1437 67.9305 28.37 58.7995 32.05C49.0647 35.9772 37.4613 39.41 25.875 40.1172Z" fill="white"/>
</svg>
