<svg width="144" height="144" viewBox="0 0 144 144" fill="none" xmlns="http://www.w3.org/2000/svg">
<path d="M72 12C74.252 12 76.472 12.122 78.66 12.366C79.4432 12.4527 80.2017 12.6928 80.8921 13.0726C81.5825 13.4523 82.1914 13.9644 82.6839 14.5795C83.1764 15.1946 83.5429 15.9007 83.7626 16.6574C83.9822 17.4142 84.0507 18.2068 83.964 18.99C83.8773 19.7732 83.6372 20.5317 83.2574 21.2221C82.8776 21.9125 82.3656 22.5214 81.7505 23.0139C81.1354 23.5064 80.4293 23.8729 79.6726 24.0926C78.9158 24.3122 78.1232 24.3807 77.34 24.294C67.4523 23.1879 57.4651 25.1816 48.7601 29.9995C40.055 34.8174 33.0621 42.2214 28.7488 51.1872C24.4355 60.153 23.0148 70.2376 24.6833 80.0461C26.3519 89.8546 31.0271 98.9023 38.0624 105.938C45.0977 112.973 54.1454 117.648 63.9539 119.317C73.7624 120.985 83.847 119.565 92.8128 115.251C101.779 110.938 109.183 103.945 114 95.2399C118.818 86.5349 120.812 76.5477 119.706 66.66C119.619 65.8768 119.688 65.0842 119.907 64.3274C120.127 63.5707 120.494 62.8646 120.986 62.2495C121.981 61.0073 123.428 60.211 125.01 60.036C126.592 59.861 128.178 60.3214 129.42 61.3161C130.036 61.8086 130.548 62.4175 130.927 63.1079C131.307 63.7983 131.547 64.5568 131.634 65.34C131.874 67.528 131.996 69.748 132 72C132 105.138 105.138 132 72 132C38.862 132 12 105.138 12 72C12 38.862 38.862 12 72 12ZM71.808 47.262C72.2034 48.8023 71.9712 50.4367 71.1623 51.8058C70.3533 53.175 69.034 54.1671 67.494 54.564C63.2632 55.6723 59.5802 58.282 57.1322 61.9063C54.6842 65.5305 53.6385 69.9216 54.1902 74.2602C54.7419 78.5988 56.8533 82.5884 60.1304 85.4847C63.4075 88.3809 67.6265 89.9858 72 90C75.9918 90.0017 79.871 88.6764 83.0273 86.2326C86.1836 83.7887 88.438 80.3651 89.436 76.5C89.8613 74.9901 90.861 73.7068 92.2209 72.925C93.5808 72.1433 95.1928 71.9251 96.7116 72.3174C98.2304 72.7096 99.5352 73.6811 100.346 75.0236C101.158 76.3661 101.411 77.973 101.052 79.5C99.2114 86.5556 94.865 92.6997 88.8249 96.7846C82.7848 100.87 75.4642 102.616 68.2306 101.697C60.9969 100.778 54.3452 97.2575 49.518 91.7924C44.6909 86.3273 42.0184 79.2917 42 72C41.999 65.3483 44.2086 58.8849 48.2815 53.626C52.3544 48.3671 58.0596 44.6109 64.5 42.948C65.2631 42.7513 66.0575 42.7069 66.8378 42.8172C67.6181 42.9276 68.369 43.1906 69.0476 43.5912C69.7262 43.9918 70.3193 44.5222 70.7929 45.152C71.2666 45.7819 71.6115 46.4988 71.808 47.262ZM111.024 12.762C112.119 13.2161 113.055 13.9844 113.714 14.9701C114.373 15.9557 114.725 17.1144 114.726 18.3V29.28H125.7C126.887 29.2803 128.046 29.6323 129.033 30.2916C130.019 30.9509 130.788 31.8879 131.242 32.9841C131.696 34.0803 131.815 35.2865 131.584 36.4502C131.352 37.6139 130.781 38.6829 129.942 39.522L108.72 60.72C107.595 61.8453 106.069 62.4777 104.478 62.478H90L79.032 73.452C77.9062 74.5778 76.3792 75.2103 74.787 75.2103C73.1948 75.2103 71.6678 74.5778 70.542 73.452C69.4162 72.3262 68.7837 70.7992 68.7837 69.207C68.7837 67.6148 69.4162 66.0878 70.542 64.962L81.516 54V39.516C81.5163 37.9248 82.1487 36.399 83.274 35.274L104.484 14.058C105.323 13.2184 106.392 12.6466 107.556 12.4148C108.721 12.183 109.927 12.3018 111.024 12.756M102.726 32.778L93.516 42V50.484H102L111.216 41.274H108.726C107.135 41.274 105.609 40.6419 104.483 39.5166C103.358 38.3914 102.726 36.8653 102.726 35.274V32.778Z" fill="white"/>
</svg>
